<svg xmlns="http://www.w3.org/2000/svg" viewBox="0 0 280 56" width="280" height="56" fill="none">
  
  <g transform="translate(0,0) scale(0.8)">
    <rect x="6" y="14" width="44" height="32" rx="6" fill="#FAF7F2" stroke="#2A251E" stroke-width="2.5"></rect>
    <rect x="10" y="18" width="3" height="3" rx="0.5" fill="#2A251E"></rect>
    <rect x="10" y="28" width="3" height="3" rx="0.5" fill="#2A251E"></rect>
    <rect x="10" y="38" width="3" height="3" rx="0.5" fill="#2A251E"></rect>
    <rect x="43" y="18" width="3" height="3" rx="0.5" fill="#2A251E"></rect>
    <rect x="43" y="28" width="3" height="3" rx="0.5" fill="#2A251E"></rect>
    <rect x="43" y="38" width="3" height="3" rx="0.5" fill="#2A251E"></rect>
    <path d="M30 32 a14 14 0 1 1 14 14 l-3.5 6 -2 -6 a14 14 0 0 1 -8.5 -14 z" fill="#E66A3D" stroke="#2A251E" stroke-width="2.5" stroke-linejoin="round"></path>
    <text x="44" y="40" font-family="Inter, sans-serif" font-size="11" font-weight="700" fill="#FAF7F2" text-anchor="middle">A文</text>
  </g>
  
  <text x="62" y="38" font-family="&#39;Noto Sans SC&#39;, sans-serif" font-size="28" font-weight="700" fill="#2A251E" letter-spacing="0">视频翻译</text>
</svg>